# xmcd
#
# Track frame offsets:
#	150
#	15493
#	29816
#	43768
#	65821
#	91910
#	95963
#	126765
#
# Disc length: 1842 seconds
#
# Revision: 3
# Processed by: cddbd v1.5.2PL0 Copyright (c) Steve Scherf et al.
# Submitted via: EasyCDDAExtractor 11.0.0.1
#
DISCID=70073008
DTITLE=Various Artist - Bob Dylan Songs
DYEAR=2008
DGENRE=Classic Rock
TTITLE0=Bob Dylan and Johnny Cash - Girl From The North Country
TTITLE1=Avril Lavigne - Knockin' On Heaven's Door
TTITLE2=Johnny Cash with June Carter Cash - It Ain't Me, Babe
TTITLE3=Nina Simone - Just Like Tom Thumb's Blues
TTITLE4=Patti Smith - Changing Of The Guards
TTITLE5=Elvis Presley - I Shall Be Released
TTITLE6=Etta Jamed - Gotta Serve Somebody
TTITLE7=The Byrds - Mr. Tambourine Man
EXTD=
EXTT0=
EXTT1=
EXTT2=
EXTT3=
EXTT4=
EXTT5=
EXTT6=
EXTT7=
PLAYORDER=
